<?xml version="1.0" encoding="UTF-8" standalone="no"?>
<!-- Generator: Adobe Illustrator 16.0.0, SVG Export Plug-In . SVG Version: 6.00 Build 0)  -->

<svg
   xmlns:dc="http://purl.org/dc/elements/1.1/"
   xmlns:cc="http://creativecommons.org/ns#"
   xmlns:rdf="http://www.w3.org/1999/02/22-rdf-syntax-ns#"
   xmlns:svg="http://www.w3.org/2000/svg"
   xmlns="http://www.w3.org/2000/svg"
   xmlns:sodipodi="http://sodipodi.sourceforge.net/DTD/sodipodi-0.dtd"
   xmlns:inkscape="http://www.inkscape.org/namespaces/inkscape"
   version="1.1"
   id="svg8"
   inkscape:version="0.92.1 r15371"
   sodipodi:docname="tie.svg"
   x="0px"
   y="0px"
   width="32"
   height="32"
   viewBox="0 0 32 32"
   enable-background="new 0 0 390 700"
   xml:space="preserve"
   inkscape:export-filename="C:\Users\HP\Desktop\Code\JS Projects\Landing Pages\1Projects\tie.png"
   inkscape:export-xdpi="96"
   inkscape:export-ydpi="96"><metadata
     id="metadata13"><rdf:RDF><cc:Work
         rdf:about=""><dc:format>image/svg+xml</dc:format><dc:type
           rdf:resource="http://purl.org/dc/dcmitype/StillImage" /><dc:title></dc:title></cc:Work></rdf:RDF></metadata><defs
     id="defs11" /><sodipodi:namedview
     pagecolor="#ffffff"
     bordercolor="#666666"
     borderopacity="1"
     objecttolerance="10"
     gridtolerance="10"
     guidetolerance="10"
     inkscape:pageopacity="0"
     inkscape:pageshadow="2"
     inkscape:window-width="1360"
     inkscape:window-height="745"
     id="namedview9"
     showgrid="false"
     inkscape:zoom="7.628672"
     inkscape:cx="34.770897"
     inkscape:cy="1.2904623"
     inkscape:window-x="-8"
     inkscape:window-y="-8"
     inkscape:window-maximized="1"
     inkscape:current-layer="svg8" /><g
     id="g4545"
     transform="translate(-830.59874,-680.34883)"><g
       id="g4551"><path
         id="rect4508"
         sodipodi:nodetypes="sccsccs"
         inkscape:connector-curvature="0"
         d="m 254.646,-28.46 137.975,17.909 c 9.543,0.833 11.112,6.486 7.188,12.285 l -60.404,91.347 c -3.47,5.248 -8.721,3.364 -11.214,0.045 L 246.29,-15.915 c -4.164,-7.002 -0.495,-13.693 8.356,-12.545 z" /><path
         id="path4511"
         sodipodi:nodetypes="sccsccs"
         inkscape:connector-curvature="0"
         d="m 618.259,-28.46 -137.974,17.909 c -9.543,0.833 -11.112,6.486 -7.188,12.285 L 533.5,93.081 c 3.471,5.248 8.721,3.364 11.214,0.045 l 81.901,-109.041 c 4.164,-7.002 0.494,-13.693 -8.356,-12.545 z" /><path
         id="rect4519"
         sodipodi:nodetypes="ccccccccccc"
         inkscape:connector-curvature="0"
         d="m 416.575,1.984 -0.341,7.998 h 0.103 l -38.89,58.648 27.494,47.409 h 63.023 L 495.457,68.63 456.568,9.982 h 0.102 l 0.341,-7.998 z"
         style="stroke:#000000;stroke-width:1.90999997;stroke-linecap:round;stroke-linejoin:round" /><path
         id="rect4526"
         inkscape:connector-curvature="0"
         d="m 404.461,133.386 -55.713,416.231 90.042,79.84 91.43,-79.84 -58.93,-416.231 z"
         style="stroke:#000000;stroke-width:1.02999997;stroke-linecap:round;stroke-linejoin:round" /></g></g><g
     transform="matrix(0.0845196,0,0,0.0845196,-21.015703,2.7766729)"
     id="g4497"><g
       id="g4495"><path
         d="m 254.646,-28.46 137.975,17.909 c 9.543,0.833 11.112,6.486 7.188,12.285 l -60.404,91.347 c -3.47,5.248 -8.721,3.364 -11.214,0.045 L 246.29,-15.915 c -4.164,-7.002 -0.495,-13.693 8.356,-12.545 z"
         inkscape:connector-curvature="0"
         sodipodi:nodetypes="sccsccs"
         id="path4487" /><path
         d="m 618.259,-28.46 -137.974,17.909 c -9.543,0.833 -11.112,6.486 -7.188,12.285 L 533.5,93.081 c 3.471,5.248 8.721,3.364 11.214,0.045 l 81.901,-109.041 c 4.164,-7.002 0.494,-13.693 -8.356,-12.545 z"
         inkscape:connector-curvature="0"
         sodipodi:nodetypes="sccsccs"
         id="path4489" /><path
         style="stroke:#000000;stroke-width:1.90999997;stroke-linecap:round;stroke-linejoin:round"
         d="m 416.575,1.984 -0.341,7.998 h 0.103 l -38.89,58.648 27.494,47.409 h 63.023 L 495.457,68.63 456.568,9.982 h 0.102 l 0.341,-7.998 z"
         inkscape:connector-curvature="0"
         sodipodi:nodetypes="ccccccccccc"
         id="path4491" /><path
         style="stroke:#000000;stroke-width:1.02999997;stroke-linecap:round;stroke-linejoin:round"
         d="m 404.461,133.386 -55.713,416.231 90.042,79.84 91.43,-79.84 -58.93,-416.231 z"
         inkscape:connector-curvature="0"
         id="path4493" /></g></g></svg>