<svg xmlns="http://www.w3.org/2000/svg" viewBox="0 0 91 48" class="svg-icon svg-icon-icon-cross-device-screens-small " focusable="true"><title/><g id="three-devices-condensed" fill="currentColor"><path d="M70.979 45.508V48h-1.396v-2.542H49.895v-1.395h19.688c.798 0 1.396.647 1.396 1.445zM90.717 1.396V41.62c0 .748-.648 1.396-1.495 1.396H49.895V41.62h39.327V1.396H20.088v13.109h-1.397V1.395C18.691.599 19.29 0 20.088 0h69.134c.847 0 1.495.598 1.495 1.396zm-39.078 45.01v.697c0 .498-.798.897-1.744.897H13.608v-1.595h38.031zM5.035 44.71c0-.398.299-.747.698-.747.398 0 .747.349.747.747 0 .4-.349.697-.747.697a.68.68 0 0 1-.698-.697zm-.947-20.037v-6.728c0-.799.648-1.447 1.445-1.447h41.221c.748 0 1.396.648 1.396 1.447v26.018c0 .797-.648 1.395-1.396 1.395H13.608v-1.395h33.096V17.894H5.534v6.78H4.087zM1.446 46.604h8.772V27.913H1.446v18.691zm10.218-18.691v18.642c0 .797-.598 1.445-1.446 1.445H1.396C.648 48 0 47.352 0 46.555V27.913c0-.797.648-1.397 1.396-1.397h8.822c.848 0 1.446.6 1.446 1.397z" id="Fill-5"/></g></svg>